<?xml version="1.0" standalone="no"?>
<!DOCTYPE svg PUBLIC "-//W3C//DTD SVG 20010904//EN"
 "http://www.w3.org/TR/2001/REC-SVG-20010904/DTD/svg10.dtd">
<svg version="1.0" xmlns="http://www.w3.org/2000/svg"
 width="130px" height="75px" viewBox="0 0 1280.000000 769.000000"
 preserveAspectRatio="xMidYMid meet">

<g transform="translate(0.000000,769.000000) scale(0.100000,-0.100000)"
fill="#ffffff" stroke="none">
<path d="M5340 5030 l0 -1200 1200 0 1200 0 1 1180 c1 649 2 1188 3 1198 1 16
-63 17 -1201 20 l-1203 2 0 -1200z m1444 740 c14 -5 3 -12 -45 -29 -174 -63
-312 -190 -395 -364 -32 -68 -64 -195 -64 -255 0 -22 -101 -282 -176 -451 -13
-29 -24 -57 -24 -62 0 -5 50 -9 110 -9 l110 0 0 -165 0 -165 -170 0 -170 0 0
165 0 165 -111 0 c-102 0 -111 1 -104 18 4 9 16 37 25 62 10 25 52 126 92 225
60 144 77 198 87 270 29 208 143 389 314 499 95 61 191 94 322 110 38 4 174
-5 199 -14z m244 -101 c67 -45 147 -125 193 -190 83 -122 119 -239 119 -394 0
-197 -64 -356 -200 -495 l-50 -51 0 -135 0 -134 -230 0 -230 0 0 165 0 165
-109 0 -110 0 33 83 c18 45 63 154 99 242 50 122 69 180 77 244 29 214 132
380 314 503 23 16 42 28 44 28 2 0 24 -14 50 -31z"/>
<path d="M10438 3449 c-209 -23 -385 -155 -438 -327 -29 -93 -29 -224 0 -312
58 -177 174 -254 545 -365 114 -34 200 -77 222 -112 28 -43 24 -106 -10 -141
-40 -42 -98 -55 -214 -50 -81 3 -107 9 -148 30 -58 30 -114 85 -147 144 l-23
42 -158 -91 c-176 -103 -169 -91 -114 -187 44 -75 150 -179 222 -217 123 -64
190 -78 385 -78 165 1 179 2 249 28 151 55 241 129 296 241 67 136 67 285 0
422 -64 132 -155 191 -446 289 -217 73 -273 102 -302 158 -17 33 -18 44 -8 77
21 71 99 107 204 96 97 -10 172 -59 224 -146 9 -17 21 -30 26 -30 6 0 76 39
158 86 168 98 159 80 88 185 -126 187 -361 286 -611 258z"/>
<path d="M1910 3240 l0 -180 183 -2 182 -3 3 -623 2 -622 183 2 c137 2 182 6
183 16 1 6 2 149 3 317 l1 305 250 0 250 0 0 -320 0 -320 185 0 185 0 0 805 0
805 -185 0 -185 0 0 -305 0 -305 -250 0 -250 0 -1 290 c-1 160 -2 296 -3 303
-1 9 -83 13 -368 15 l-368 2 0 -180z"/>
<path d="M4270 2615 l0 -805 505 0 505 0 0 175 0 175 -325 0 -325 0 0 145 0
145 290 0 290 0 0 175 0 175 -290 0 -290 0 0 135 0 135 320 0 320 0 0 175 0
175 -500 0 -500 0 0 -805z"/>
<path d="M6332 3393 c-6 -16 -70 -210 -142 -433 -72 -223 -158 -486 -190 -585
-157 -478 -180 -551 -180 -557 0 -5 89 -8 199 -8 181 0 199 2 204 18 3 9 21
71 42 137 42 137 178 586 235 780 64 214 77 251 83 235 8 -20 304 -1005 330
-1097 l20 -73 203 0 202 0 -13 43 c-7 23 -56 173 -108 332 -134 410 -188 574
-284 870 -46 143 -92 283 -102 310 l-18 50 -235 3 -235 2 -11 -27z"/>
<path d="M7570 3240 l0 -180 185 0 185 0 0 -440 0 -440 -185 0 -185 0 0 -185
0 -186 588 3 c575 4 589 4 660 26 243 74 434 264 519 517 26 75 27 91 27 260
0 169 -1 185 -27 260 -44 130 -99 219 -201 321 -98 98 -171 145 -297 191 l-74
28 -597 3 -598 3 0 -181z m1116 -181 c248 -45 386 -303 314 -585 -43 -167
-156 -272 -326 -303 -32 -6 -127 -11 -211 -11 l-153 0 0 455 0 455 158 0 c87
0 185 -5 218 -11z"/>
<path d="M3940 1475 l0 -35 50 0 50 0 0 -170 0 -170 -50 0 -50 0 0 -35 0 -35
140 0 140 0 0 35 0 35 -50 0 -50 0 0 205 0 205 -90 0 -90 0 0 -35z"/>
<path d="M9340 1475 l0 -35 50 0 50 0 0 -170 0 -170 -50 0 -50 0 0 -35 0 -35
145 0 145 0 0 35 0 35 -50 0 -50 0 0 205 0 205 -95 0 -95 0 0 -35z"/>
<path d="M5592 1488 c-16 -16 -15 -53 2 -68 36 -29 92 13 75 58 -9 25 -56 31
-77 10z"/>
<path d="M10613 1493 c-16 -6 -17 -55 -1 -71 7 -7 21 -12 33 -12 29 0 45 19
45 51 0 34 -36 49 -77 32z"/>
<path d="M2062 1473 c-63 -31 -92 -97 -92 -212 0 -95 13 -142 51 -185 70 -81
214 -62 264 34 25 48 20 60 -24 60 -34 0 -42 -4 -53 -27 -19 -40 -60 -58 -95
-41 -42 20 -53 53 -53 156 0 104 15 148 54 158 46 11 70 1 89 -38 17 -35 22
-38 59 -38 40 0 40 0 34 32 -15 74 -72 118 -151 118 -27 0 -65 -8 -83 -17z"/>
<path d="M6687 1470 c-48 -38 -56 -120 -18 -180 7 -10 0 -24 -24 -52 -40 -43
-50 -74 -41 -122 15 -81 127 -117 217 -70 23 12 28 12 33 -1 4 -11 21 -15 57
-15 l51 0 -27 36 -27 35 21 49 c12 27 21 60 21 74 0 23 -4 26 -34 26 -31 0
-34 -3 -40 -35 -4 -19 -10 -36 -15 -39 -4 -3 -24 16 -44 42 l-36 47 39 37 c22
20 42 48 46 62 8 33 -12 92 -39 111 -32 22 -109 19 -140 -5z m103 -70 c12 -22
3 -47 -26 -70 -14 -12 -18 -12 -30 5 -27 37 -11 85 28 85 9 0 22 -9 28 -20z
m-26 -237 c32 -43 34 -49 19 -60 -40 -31 -93 -1 -93 52 0 29 15 55 31 55 4 0
23 -21 43 -47z"/>
<path d="M7360 1455 l0 -35 70 0 70 0 0 -195 0 -195 40 0 40 0 2 193 3 192 73
3 73 3 -3 32 -3 32 -182 3 -183 2 0 -35z"/>
<path d="M4380 1410 l0 -40 -40 0 c-38 0 -40 -2 -40 -29 0 -27 3 -30 38 -33
l37 -3 5 -112 c4 -97 8 -115 26 -133 23 -24 87 -42 122 -35 73 15 72 14 72 45
0 30 0 30 -54 27 -35 -1 -60 3 -68 11 -8 8 -14 47 -16 107 l-4 95 66 0 66 0 0
30 0 30 -65 0 -65 0 0 40 0 40 -40 0 -40 0 0 -40z"/>
<path d="M2438 1355 c-58 -33 -91 -131 -69 -212 24 -87 107 -135 194 -112 77
20 117 77 117 169 0 60 -18 106 -54 140 -22 20 -39 25 -94 27 -46 2 -75 -1
-94 -12z m129 -67 c21 -16 34 -82 25 -123 -15 -76 -94 -98 -127 -35 -30 58
-10 162 32 173 21 5 53 -2 70 -15z"/>
<path d="M2760 1200 l0 -170 45 0 44 0 3 127 c3 125 3 128 28 140 14 6 37 9
52 6 37 -7 48 -45 48 -169 l0 -104 40 0 40 0 0 130 c0 178 -17 210 -114 210
-33 0 -52 -6 -75 -26 l-31 -26 0 26 c0 24 -4 26 -40 26 l-40 0 0 -170z"/>
<path d="M3203 1350 c-95 -57 -55 -154 74 -180 70 -15 97 -34 82 -61 -7 -15
-21 -19 -59 -19 -40 0 -52 4 -68 25 -15 18 -29 25 -56 25 -45 0 -47 -17 -6
-64 87 -98 297 -46 276 68 -8 41 -35 61 -113 81 -85 22 -91 25 -97 40 -16 42
92 65 116 25 10 -15 24 -20 55 -20 24 0 43 2 43 4 0 23 -26 60 -52 76 -45 27
-150 28 -195 0z"/>
<path d="M3540 1238 c0 -114 3 -138 20 -165 34 -56 119 -64 172 -16 17 15 18
14 18 -5 0 -19 6 -22 40 -22 l40 0 0 170 0 170 -40 0 -40 0 0 -119 c0 -117 -1
-120 -26 -140 -33 -26 -58 -27 -84 -1 -18 18 -20 33 -20 140 l0 120 -40 0 -40
0 0 -132z"/>
<path d="M4749 1347 c-52 -34 -71 -79 -67 -159 4 -76 23 -110 78 -142 44 -26
116 -26 161 0 20 11 44 38 57 64 43 82 13 208 -58 245 -45 23 -131 19 -171 -8z
m143 -71 c12 -14 18 -39 18 -79 0 -48 -4 -62 -25 -82 -30 -31 -56 -32 -90 -2
-23 19 -27 31 -27 78 -1 63 13 96 45 109 29 11 58 3 79 -24z"/>
<path d="M5120 1200 l0 -170 45 0 45 0 0 109 c0 107 1 110 27 131 22 17 38 21
80 18 50 -3 52 -2 57 26 11 54 10 56 -48 56 -43 0 -60 -5 -84 -25 -31 -26 -42
-24 -42 7 0 14 -8 18 -40 18 l-40 0 0 -170z"/>
<path d="M5482 1338 c3 -32 5 -33 51 -36 l47 -3 0 -100 0 -99 -50 0 -49 0 1
-35 1 -35 139 0 138 0 0 35 c0 35 0 35 -45 35 l-45 0 0 135 0 135 -96 0 -95 0
3 -32z"/>
<path d="M5914 1360 c-25 -10 -64 -57 -64 -76 0 -10 14 -14 45 -14 32 0 45 4
45 14 0 30 68 36 93 8 30 -32 22 -52 -20 -52 -67 -1 -117 -18 -145 -50 -54
-59 -26 -135 60 -161 36 -10 46 -9 82 9 34 17 42 18 47 6 3 -9 20 -14 47 -14
l41 0 -6 132 c-6 142 -13 164 -60 192 -29 17 -128 21 -165 6z m136 -204 c0
-40 -28 -66 -70 -66 -32 0 -50 17 -50 46 0 34 29 50 93 53 24 1 27 -2 27 -33z"/>
<path d="M7843 1348 c-44 -31 -64 -69 -70 -132 -11 -111 60 -189 172 -189 51
0 84 12 118 41 16 15 16 16 -3 37 l-21 22 -39 -19 c-48 -24 -91 -17 -120 19
-11 14 -20 30 -20 34 0 5 52 9 115 9 l115 0 0 38 c-1 48 -30 113 -65 140 -40
31 -138 31 -182 0z m149 -71 c4 -7 8 -20 8 -29 0 -16 -10 -18 -70 -18 -38 0
-70 2 -70 5 0 20 28 56 49 63 28 10 70 -1 83 -21z"/>
<path d="M8219 1343 c-40 -34 -59 -79 -59 -143 0 -124 92 -201 201 -168 59 17
129 105 87 109 -36 3 -61 -5 -83 -27 -31 -31 -65 -31 -96 2 -20 21 -24 36 -24
85 1 68 24 102 69 102 29 0 66 -28 66 -50 0 -9 13 -13 41 -13 41 0 41 0 35 33
-3 18 -21 46 -41 65 -32 29 -40 32 -99 32 -55 0 -69 -4 -97 -27z"/>
<path d="M8550 1200 l0 -170 45 0 45 0 0 124 c0 97 3 126 15 136 18 15 83 16
99 1 7 -7 12 -60 14 -136 l4 -125 39 0 39 0 0 130 c0 178 -17 210 -113 210
-29 0 -53 -7 -70 -20 -14 -11 -28 -20 -31 -20 -3 0 -6 9 -6 20 0 17 -7 20 -40
20 l-40 0 0 -170z"/>
<path d="M8990 1344 c-45 -39 -60 -75 -60 -147 0 -105 59 -171 153 -171 65 0
108 24 137 76 19 33 22 51 18 115 -3 73 -4 76 -45 114 -40 37 -46 39 -107 39
-55 0 -69 -4 -96 -26z m145 -64 c42 -47 26 -159 -26 -180 -55 -23 -99 23 -99
104 1 84 76 130 125 76z"/>
<path d="M9784 1360 c-32 -13 -72 -67 -80 -106 -10 -54 1 -133 23 -162 31 -42
80 -66 133 -65 100 1 155 63 155 173 0 111 -55 171 -157 169 -29 0 -62 -4 -74
-9z m99 -61 c68 -31 60 -188 -9 -205 -97 -24 -129 174 -34 209 8 3 16 6 17 6
1 1 13 -4 26 -10z"/>
<path d="M10148 1350 c-81 -63 -77 -251 7 -306 32 -21 99 -20 132 2 l26 16 -7
-33 c-11 -60 -64 -82 -126 -51 l-40 19 -15 -24 c-19 -29 -15 -36 29 -57 74
-35 180 -13 216 46 18 30 20 50 20 221 l0 187 -40 0 c-31 0 -40 -4 -40 -17 0
-15 -1 -15 -18 0 -27 25 -112 23 -144 -3z m150 -63 c17 -13 17 -161 -1 -175
-71 -59 -149 30 -115 133 19 57 72 76 116 42z"/>
<path d="M10500 1335 l0 -35 50 0 50 0 0 -100 0 -100 -50 0 -50 0 0 -35 0 -35
140 0 140 0 0 35 c0 35 0 35 -45 35 l-45 0 0 135 0 135 -95 0 -95 0 0 -35z"/>
<path d="M10907 1340 c-51 -44 -50 -70 3 -70 29 0 42 5 50 20 22 42 110 15
110 -33 0 -13 -9 -17 -37 -17 -67 -1 -117 -18 -145 -50 -52 -58 -26 -139 51
-160 38 -10 90 -1 116 20 9 8 14 6 19 -5 4 -10 19 -15 50 -15 l45 0 -10 32
c-5 18 -9 79 -9 135 0 99 -1 104 -29 135 -27 30 -34 33 -103 36 -72 4 -76 3
-111 -28z m161 -184 c6 -47 -51 -80 -102 -60 -19 7 -21 57 -3 72 16 13 46 20
77 19 20 -2 26 -8 28 -31z"/>
</g>
</svg>
